<svg xmlns="http://www.w3.org/2000/svg" viewBox="0 0 120 120" role="img" aria-label="Dink, Pickleball mascot">
  <defs>
    <linearGradient id="dink-body" x1="0%" y1="0%" x2="0%" y2="100%">
      <stop offset="0%" stop-color="#fffdf8"/>
      <stop offset="100%" stop-color="#f0ebe3"/>
    </linearGradient>
    <linearGradient id="dink-band" x1="0%" y1="0%" x2="100%" y2="0%">
      <stop offset="0%" stop-color="#ea580c"/>
      <stop offset="100%" stop-color="#fb923c"/>
    </linearGradient>
  </defs>
  <ellipse cx="60" cy="108" rx="34" ry="6" fill="#000" opacity="0.12"/>
  <circle cx="60" cy="68" r="38" fill="url(#dink-body)" stroke="#c41e3a" stroke-width="2.5"/>
  <ellipse cx="42" cy="72" rx="8" ry="5" fill="#ffb4b4" opacity="0.55"/>
  <ellipse cx="78" cy="72" rx="8" ry="5" fill="#ffb4b4" opacity="0.55"/>
  <ellipse cx="48" cy="62" rx="7" ry="9" fill="#1a1a2e"/>
  <ellipse cx="72" cy="62" rx="7" ry="9" fill="#1a1a2e"/>
  <circle cx="50" cy="60" r="2.5" fill="#fff"/>
  <circle cx="74" cy="60" r="2.5" fill="#fff"/>
  <path d="M46 78 Q60 90 74 78" fill="none" stroke="#1a1a2e" stroke-width="2.5" stroke-linecap="round"/>
  <path d="M26 46 Q60 30 94 46 L92 54 Q60 40 28 54 Z" fill="url(#dink-band)"/>
  <circle cx="60" cy="36" r="7" fill="#c41e3a"/>
  <text x="60" y="39" text-anchor="middle" font-size="6" font-weight="800" fill="#fff" font-family="system-ui,sans-serif">MP</text>
  <g transform="translate(80,54) rotate(15)">
    <rect x="0" y="0" width="7" height="24" rx="3" fill="#475569"/>
    <rect x="-14" y="-18" width="28" height="22" rx="6" fill="#0ea5e9" stroke="#0369a1" stroke-width="2"/>
    <rect x="-10" y="-14" width="20" height="14" rx="3" fill="#38bdf8" opacity="0.5"/>
  </g>
  <circle cx="22" cy="88" r="9" fill="#facc15" stroke="#eab308" stroke-width="1.5"/>
  <circle cx="19" cy="85" r="1.2" fill="#ca8a04" opacity="0.6"/>
  <circle cx="25" cy="87" r="1.2" fill="#ca8a04" opacity="0.6"/>
  <circle cx="22" cy="91" r="1.2" fill="#ca8a04" opacity="0.6"/>
  <circle cx="20" cy="90" r="0.9" fill="#ca8a04" opacity="0.5"/>
</svg>
