<svg xmlns="http://www.w3.org/2000/svg" viewBox="0 0 120 120" role="img" aria-label="Dink, Pickleball mascot">
  <defs>
    <linearGradient id="dink-body" x1="0%" y1="0%" x2="0%" y2="100%">
      <stop offset="0%" stop-color="#fffdf8"/>
      <stop offset="100%" stop-color="#f0ebe3"/>
    </linearGradient>
    <linearGradient id="dink-band" x1="0%" y1="0%" x2="100%" y2="0%">
      <stop offset="0%" stop-color="#b91c1c"/>
      <stop offset="100%" stop-color="#ef4444"/>
    </linearGradient>
  </defs>
  <ellipse cx="60" cy="108" rx="34" ry="6" fill="#000" opacity="0.12"/>
  <circle cx="60" cy="68" r="38" fill="url(#dink-body)" stroke="#dc2626" stroke-width="2.5"/>
  <ellipse cx="42" cy="72" rx="8" ry="5" fill="#ffb4b4" opacity="0.55"/>
  <ellipse cx="78" cy="72" rx="8" ry="5" fill="#ffb4b4" opacity="0.55"/>
  <ellipse cx="48" cy="62" rx="7" ry="9" fill="#1a1a2e"/>
  <ellipse cx="72" cy="62" rx="7" ry="9" fill="#1a1a2e"/>
  <circle cx="50" cy="60" r="2.5" fill="#fff"/>
  <circle cx="74" cy="60" r="2.5" fill="#fff"/>
  <path d="M46 78 Q60 90 74 78" fill="none" stroke="#1a1a2e" stroke-width="2.5" stroke-linecap="round"/>
  <path d="M26 46 Q60 30 94 46 L92 54 Q60 40 28 54 Z" fill="url(#dink-band)"/>
  <circle cx="60" cy="36" r="7" fill="#991b1b"/>
  <text x="60" y="39" text-anchor="middle" font-size="6" font-weight="800" fill="#fff" font-family="system-ui,sans-serif">MP</text>
  <!-- Pickleball: red theme wiffle ball -->
  <circle cx="20" cy="92" r="9" fill="#f87171" stroke="#dc2626" stroke-width="1.5"/>
  <circle cx="16" cy="88" r="1.8" fill="#991b1b" opacity="0.45"/>
  <circle cx="24" cy="88" r="1.8" fill="#991b1b" opacity="0.45"/>
  <circle cx="20" cy="96" r="1.8" fill="#991b1b" opacity="0.45"/>
  <circle cx="16" cy="95" r="1.3" fill="#991b1b" opacity="0.35"/>
  <circle cx="24" cy="95" r="1.3" fill="#991b1b" opacity="0.35"/>
  <circle cx="20" cy="90" r="1.2" fill="#991b1b" opacity="0.35"/>
  <!-- Pickleball paddle -->
  <g transform="translate(76,86) rotate(38) scale(0.9)">
    <rect x="-2.5" y="-18" width="6" height="18" rx="2.5" fill="#475569"/>
    <rect x="-18" y="-40" width="36" height="24" rx="8" fill="#dc2626" stroke="#991b1b" stroke-width="2"/>
    <rect x="-14" y="-36" width="28" height="16" rx="5" fill="#f87171" opacity="0.35"/>
    <line x1="-10" y1="-36" x2="-10" y2="-20" stroke="#991b1b" stroke-width="0.6" opacity="0.5"/>
    <line x1="0" y1="-36" x2="0" y2="-20" stroke="#991b1b" stroke-width="0.6" opacity="0.5"/>
    <line x1="10" y1="-36" x2="10" y2="-20" stroke="#991b1b" stroke-width="0.6" opacity="0.5"/>
  </g>
</svg>
