<svg xmlns="http://www.w3.org/2000/svg" viewBox="0 0 120 120" role="img" aria-label="Pipo, Padel mascot">
  <defs>
    <linearGradient id="pipo-body" x1="0%" y1="0%" x2="0%" y2="100%">
      <stop offset="0%" stop-color="#fffdf8"/>
      <stop offset="100%" stop-color="#f0ebe3"/>
    </linearGradient>
    <linearGradient id="pipo-band" x1="0%" y1="0%" x2="100%" y2="0%">
      <stop offset="0%" stop-color="#0284c7"/>
      <stop offset="100%" stop-color="#0ea5e9"/>
    </linearGradient>
  </defs>
  <ellipse cx="60" cy="108" rx="34" ry="6" fill="#000" opacity="0.12"/>
  <circle cx="60" cy="68" r="38" fill="url(#pipo-body)" stroke="#0ea5e9" stroke-width="2.5"/>
  <ellipse cx="42" cy="72" rx="8" ry="5" fill="#ffb4b4" opacity="0.55"/>
  <ellipse cx="78" cy="72" rx="8" ry="5" fill="#ffb4b4" opacity="0.55"/>
  <ellipse cx="48" cy="62" rx="7" ry="9" fill="#1a1a2e"/>
  <ellipse cx="72" cy="62" rx="7" ry="9" fill="#1a1a2e"/>
  <circle cx="50" cy="60" r="2.5" fill="#fff"/>
  <circle cx="74" cy="60" r="2.5" fill="#fff"/>
  <path d="M46 78 Q60 90 74 78" fill="none" stroke="#1a1a2e" stroke-width="2.5" stroke-linecap="round"/>
  <path d="M26 48 Q60 32 94 48 L92 56 Q60 42 28 56 Z" fill="url(#pipo-band)"/>
  <rect x="52" y="34" width="16" height="10" rx="3" fill="#0369a1"/>
  <text x="60" y="42" text-anchor="middle" font-size="7" font-weight="800" fill="#fff" font-family="system-ui,sans-serif">MP</text>
  <!-- Padel ball: blue theme -->
  <circle cx="20" cy="92" r="9" fill="#38bdf8" stroke="#0284c7" stroke-width="1.5"/>
  <path d="M13 92 Q20 85 27 92" fill="none" stroke="#e0f2fe" stroke-width="1.8" stroke-linecap="round"/>
  <path d="M13 92 Q20 99 27 92" fill="none" stroke="#e0f2fe" stroke-width="1.8" stroke-linecap="round"/>
  <!-- Padel racket: perforated paddle, fully inside frame -->
  <g transform="translate(76,86) rotate(38) scale(0.9)">
    <rect x="-2.5" y="-20" width="5" height="20" rx="2" fill="#64748b"/>
    <rect x="-17" y="-42" width="34" height="24" rx="10" fill="#0ea5e9" stroke="#0369a1" stroke-width="2"/>
    <circle cx="-8" cy="-36" r="2.2" fill="#7dd3fc"/>
    <circle cx="0" cy="-36" r="2.2" fill="#7dd3fc"/>
    <circle cx="8" cy="-36" r="2.2" fill="#7dd3fc"/>
    <circle cx="-8" cy="-30" r="2.2" fill="#7dd3fc"/>
    <circle cx="0" cy="-30" r="2.2" fill="#7dd3fc"/>
    <circle cx="8" cy="-30" r="2.2" fill="#7dd3fc"/>
    <circle cx="-8" cy="-24" r="2.2" fill="#7dd3fc"/>
    <circle cx="0" cy="-24" r="2.2" fill="#7dd3fc"/>
    <circle cx="8" cy="-24" r="2.2" fill="#7dd3fc"/>
  </g>
</svg>
