<svg xmlns="http://www.w3.org/2000/svg" viewBox="0 0 120 120" role="img" aria-label="Rally — Match Point mascot">
  <defs>
    <linearGradient id="rally-body" x1="0%" y1="0%" x2="0%" y2="100%">
      <stop offset="0%" stop-color="#fffdf8"/>
      <stop offset="100%" stop-color="#f0ebe3"/>
    </linearGradient>
  </defs>
  <ellipse cx="60" cy="108" rx="34" ry="6" fill="#000" opacity="0.12"/>
  <circle cx="60" cy="68" r="38" fill="url(#rally-body)" stroke="#c41e3a" stroke-width="2.5"/>
  <ellipse cx="42" cy="72" rx="8" ry="5" fill="#ffb4b4" opacity="0.55"/>
  <ellipse cx="78" cy="72" rx="8" ry="5" fill="#ffb4b4" opacity="0.55"/>
  <ellipse cx="48" cy="62" rx="7" ry="9" fill="#1a1a2e"/>
  <ellipse cx="72" cy="62" rx="7" ry="9" fill="#1a1a2e"/>
  <circle cx="50" cy="60" r="2.5" fill="#fff"/>
  <circle cx="74" cy="60" r="2.5" fill="#fff"/>
  <path d="M46 78 Q60 91 74 78" fill="none" stroke="#1a1a2e" stroke-width="2.5" stroke-linecap="round"/>
  <!-- MP crest cap -->
  <path d="M24 48 Q60 26 96 48 L92 58 Q60 40 28 58 Z" fill="#c41e3a"/>
  <circle cx="60" cy="38" r="10" fill="#fff"/>
  <text x="60" y="42" text-anchor="middle" font-size="8" font-weight="800" fill="#c41e3a" font-family="system-ui,sans-serif">MP</text>
  <!-- little point badge -->
  <circle cx="88" cy="44" r="12" fill="#facc15" stroke="#c41e3a" stroke-width="2"/>
  <text x="88" y="48" text-anchor="middle" font-size="10" font-weight="800" fill="#c41e3a" font-family="system-ui,sans-serif">!</text>
</svg>
