<svg xmlns="http://www.w3.org/2000/svg" viewBox="0 0 120 120" role="img" aria-label="Birdi, Badminton mascot">
  <defs>
    <linearGradient id="birdi-body" x1="0%" y1="0%" x2="0%" y2="100%">
      <stop offset="0%" stop-color="#fffdf8"/>
      <stop offset="100%" stop-color="#f0ebe3"/>
    </linearGradient>
    <linearGradient id="birdi-band" x1="0%" y1="0%" x2="100%" y2="0%">
      <stop offset="0%" stop-color="#d97706"/>
      <stop offset="100%" stop-color="#f59e0b"/>
    </linearGradient>
  </defs>
  <ellipse cx="60" cy="108" rx="34" ry="6" fill="#000" opacity="0.12"/>
  <circle cx="60" cy="68" r="38" fill="url(#birdi-body)" stroke="#f59e0b" stroke-width="2.5"/>
  <ellipse cx="42" cy="72" rx="8" ry="5" fill="#ffb4b4" opacity="0.55"/>
  <ellipse cx="78" cy="72" rx="8" ry="5" fill="#ffb4b4" opacity="0.55"/>
  <ellipse cx="48" cy="62" rx="7" ry="9" fill="#1a1a2e"/>
  <ellipse cx="72" cy="62" rx="7" ry="9" fill="#1a1a2e"/>
  <circle cx="50" cy="60" r="2.5" fill="#fff"/>
  <circle cx="74" cy="60" r="2.5" fill="#fff"/>
  <path d="M46 78 Q60 90 74 78" fill="none" stroke="#1a1a2e" stroke-width="2.5" stroke-linecap="round"/>
  <path d="M26 48 Q60 32 94 48 L92 56 Q60 42 28 56 Z" fill="url(#birdi-band)"/>
  <rect x="52" y="34" width="16" height="10" rx="3" fill="#b45309"/>
  <text x="60" y="42" text-anchor="middle" font-size="7" font-weight="800" fill="#fff" font-family="system-ui,sans-serif">MP</text>
  <!-- Shuttlecock: amber theme cork + white feathers -->
  <g transform="translate(20,94)">
    <ellipse cx="0" cy="5" rx="5" ry="3.5" fill="#fbbf24" stroke="#d97706" stroke-width="1.2"/>
    <path d="M0 2 L-9 -14 L-3 -4 L0 -8 L3 -4 L9 -14 Z" fill="#fff" stroke="#fde68a" stroke-width="0.8" stroke-linejoin="round"/>
    <path d="M-6 -10 L0 2 L6 -10" fill="none" stroke="#fef3c7" stroke-width="0.6"/>
  </g>
  <!-- Badminton racket: large oval head -->
  <g transform="translate(76,86) rotate(38) scale(0.85)">
    <line x1="0" y1="0" x2="0" y2="28" stroke="#64748b" stroke-width="2.5" stroke-linecap="round"/>
    <ellipse cx="0" cy="-22" rx="18" ry="22" fill="none" stroke="#d97706" stroke-width="2.5"/>
    <ellipse cx="0" cy="-22" rx="15" ry="19" fill="#fffbeb" opacity="0.4"/>
    <line x1="-12" y1="-22" x2="12" y2="-22" stroke="#fbbf24" stroke-width="0.8"/>
    <line x1="-10" y1="-16" x2="10" y2="-16" stroke="#fbbf24" stroke-width="0.8"/>
    <line x1="-11" y1="-28" x2="11" y2="-28" stroke="#fbbf24" stroke-width="0.8"/>
    <line x1="-11" y1="-34" x2="11" y2="-34" stroke="#fbbf24" stroke-width="0.8"/>
    <line x1="-14" y1="-22" x2="-14" y2="-6" stroke="#fbbf24" stroke-width="0.8"/>
    <line x1="-7" y1="-22" x2="-7" y2="-6" stroke="#fbbf24" stroke-width="0.8"/>
    <line x1="0" y1="-22" x2="0" y2="-6" stroke="#fbbf24" stroke-width="0.8"/>
    <line x1="7" y1="-22" x2="7" y2="-6" stroke="#fbbf24" stroke-width="0.8"/>
    <line x1="14" y1="-22" x2="14" y2="-6" stroke="#fbbf24" stroke-width="0.8"/>
  </g>
</svg>
