<svg xmlns="http://www.w3.org/2000/svg" viewBox="0 0 120 120" role="img" aria-label="Smash, Badminton mascot">
  <defs>
    <linearGradient id="smash-body" x1="0%" y1="0%" x2="0%" y2="100%">
      <stop offset="0%" stop-color="#fffdf8"/>
      <stop offset="100%" stop-color="#f0ebe3"/>
    </linearGradient>
    <linearGradient id="smash-band" x1="0%" y1="0%" x2="100%" y2="0%">
      <stop offset="0%" stop-color="#d97706"/>
      <stop offset="100%" stop-color="#f59e0b"/>
    </linearGradient>
  </defs>
  <ellipse cx="60" cy="108" rx="34" ry="6" fill="#000" opacity="0.12"/>
  <circle cx="60" cy="68" r="38" fill="url(#smash-body)" stroke="#f59e0b" stroke-width="2.5"/>
  <ellipse cx="42" cy="72" rx="8" ry="5" fill="#ffb4b4" opacity="0.55"/>
  <ellipse cx="78" cy="72" rx="8" ry="5" fill="#ffb4b4" opacity="0.55"/>
  <ellipse cx="48" cy="62" rx="7" ry="9" fill="#1a1a2e"/>
  <ellipse cx="72" cy="62" rx="7" ry="9" fill="#1a1a2e"/>
  <circle cx="50" cy="60" r="2.5" fill="#fff"/>
  <circle cx="74" cy="60" r="2.5" fill="#fff"/>
  <path d="M46 78 Q60 90 74 78" fill="none" stroke="#1a1a2e" stroke-width="2.5" stroke-linecap="round"/>
  <path d="M26 48 Q60 32 94 48 L92 56 Q60 42 28 56 Z" fill="url(#smash-band)"/>
  <rect x="52" y="34" width="16" height="10" rx="3" fill="#b45309"/>
  <text x="60" y="42" text-anchor="middle" font-size="7" font-weight="800" fill="#fff" font-family="system-ui,sans-serif">MP</text>
  <g transform="translate(78,48) rotate(20)">
    <ellipse cx="0" cy="0" rx="5" ry="8" fill="#fef3c7" stroke="#d97706" stroke-width="1.5"/>
    <line x1="0" y1="8" x2="0" y2="32" stroke="#64748b" stroke-width="3" stroke-linecap="round"/>
    <ellipse cx="0" cy="36" rx="14" ry="10" fill="none" stroke="#d97706" stroke-width="2.5"/>
  </g>
  <circle cx="22" cy="88" r="9" fill="#facc15" stroke="#ca8a04" stroke-width="1.5"/>
</svg>
