<svg xmlns="http://www.w3.org/2000/svg" viewBox="0 0 120 120" role="img" aria-label="Spin, Table Tennis mascot">
  <defs>
    <linearGradient id="spin-body" x1="0%" y1="0%" x2="0%" y2="100%">
      <stop offset="0%" stop-color="#fffdf8"/>
      <stop offset="100%" stop-color="#f0ebe3"/>
    </linearGradient>
    <linearGradient id="spin-band" x1="0%" y1="0%" x2="100%" y2="0%">
      <stop offset="0%" stop-color="#ea580c"/>
      <stop offset="100%" stop-color="#f97316"/>
    </linearGradient>
  </defs>
  <ellipse cx="60" cy="108" rx="34" ry="6" fill="#000" opacity="0.12"/>
  <circle cx="60" cy="68" r="38" fill="url(#spin-body)" stroke="#f97316" stroke-width="2.5"/>
  <ellipse cx="42" cy="72" rx="8" ry="5" fill="#ffb4b4" opacity="0.55"/>
  <ellipse cx="78" cy="72" rx="8" ry="5" fill="#ffb4b4" opacity="0.55"/>
  <ellipse cx="48" cy="62" rx="7" ry="9" fill="#1a1a2e"/>
  <ellipse cx="72" cy="62" rx="7" ry="9" fill="#1a1a2e"/>
  <circle cx="50" cy="60" r="2.5" fill="#fff"/>
  <circle cx="74" cy="60" r="2.5" fill="#fff"/>
  <path d="M46 78 Q60 90 74 78" fill="none" stroke="#1a1a2e" stroke-width="2.5" stroke-linecap="round"/>
  <path d="M26 48 Q60 32 94 48 L92 56 Q60 42 28 56 Z" fill="url(#spin-band)"/>
  <rect x="52" y="34" width="16" height="10" rx="3" fill="#c2410c"/>
  <text x="60" y="42" text-anchor="middle" font-size="7" font-weight="800" fill="#fff" font-family="system-ui,sans-serif">MP</text>
  <g transform="translate(80,54) rotate(15)">
    <circle cx="0" cy="18" r="6" fill="#f97316" stroke="#c2410c" stroke-width="1"/>
    <ellipse cx="0" cy="0" rx="12" ry="14" fill="#1e293b" stroke="#64748b" stroke-width="2"/>
    <rect x="-3" y="12" width="6" height="22" rx="2" fill="#64748b"/>
  </g>
  <circle cx="22" cy="88" r="9" fill="#facc15" stroke="#ca8a04" stroke-width="1.5"/>
</svg>
