<svg xmlns="http://www.w3.org/2000/svg" viewBox="0 0 120 120" role="img" aria-label="Pongi, Table Tennis mascot">
  <defs>
    <linearGradient id="pongi-body" x1="0%" y1="0%" x2="0%" y2="100%">
      <stop offset="0%" stop-color="#fffdf8"/>
      <stop offset="100%" stop-color="#f0ebe3"/>
    </linearGradient>
    <linearGradient id="pongi-band" x1="0%" y1="0%" x2="100%" y2="0%">
      <stop offset="0%" stop-color="#ea580c"/>
      <stop offset="100%" stop-color="#f97316"/>
    </linearGradient>
  </defs>
  <ellipse cx="60" cy="108" rx="34" ry="6" fill="#000" opacity="0.12"/>
  <circle cx="60" cy="68" r="38" fill="url(#pongi-body)" stroke="#f97316" stroke-width="2.5"/>
  <ellipse cx="42" cy="72" rx="8" ry="5" fill="#ffb4b4" opacity="0.55"/>
  <ellipse cx="78" cy="72" rx="8" ry="5" fill="#ffb4b4" opacity="0.55"/>
  <ellipse cx="48" cy="62" rx="7" ry="9" fill="#1a1a2e"/>
  <ellipse cx="72" cy="62" rx="7" ry="9" fill="#1a1a2e"/>
  <circle cx="50" cy="60" r="2.5" fill="#fff"/>
  <circle cx="74" cy="60" r="2.5" fill="#fff"/>
  <path d="M46 78 Q60 90 74 78" fill="none" stroke="#1a1a2e" stroke-width="2.5" stroke-linecap="round"/>
  <path d="M26 48 Q60 32 94 48 L92 56 Q60 42 28 56 Z" fill="url(#pongi-band)"/>
  <rect x="52" y="34" width="16" height="10" rx="3" fill="#c2410c"/>
  <text x="60" y="42" text-anchor="middle" font-size="7" font-weight="800" fill="#fff" font-family="system-ui,sans-serif">MP</text>
  <!-- Ping pong ball: orange theme -->
  <circle cx="20" cy="92" r="8.5" fill="#fb923c" stroke="#ea580c" stroke-width="1.2"/>
  <path d="M13 92 Q20 85 27 92" fill="none" stroke="#ffedd5" stroke-width="1.3" stroke-linecap="round"/>
  <path d="M13 92 Q20 99 27 92" fill="none" stroke="#ffedd5" stroke-width="1.3" stroke-linecap="round"/>
  <!-- Table tennis paddle -->
  <g transform="translate(76,86) rotate(38) scale(0.9)">
    <rect x="-2.5" y="-16" width="5" height="16" rx="2" fill="#78350f"/>
    <ellipse cx="0" cy="-24" rx="14" ry="15" fill="#dc2626" stroke="#991b1b" stroke-width="1.8"/>
    <ellipse cx="0" cy="-24" rx="11" ry="12" fill="#b91c1c" opacity="0.25"/>
    <ellipse cx="-4" cy="-26" rx="3" ry="4" fill="#ef4444" opacity="0.2"/>
  </g>
</svg>
