<svg xmlns="http://www.w3.org/2000/svg" viewBox="0 0 120 120" role="img" aria-label="Tenni, Tennis mascot">
  <defs>
    <linearGradient id="tenni-body" x1="0%" y1="0%" x2="0%" y2="100%">
      <stop offset="0%" stop-color="#fffdf8"/>
      <stop offset="100%" stop-color="#f0ebe3"/>
    </linearGradient>
    <linearGradient id="tenni-visor" x1="0%" y1="0%" x2="100%" y2="0%">
      <stop offset="0%" stop-color="#15803d"/>
      <stop offset="100%" stop-color="#22c55e"/>
    </linearGradient>
  </defs>
  <ellipse cx="60" cy="108" rx="34" ry="6" fill="#000" opacity="0.12"/>
  <circle cx="60" cy="68" r="38" fill="url(#tenni-body)" stroke="#c41e3a" stroke-width="2.5"/>
  <ellipse cx="42" cy="72" rx="8" ry="5" fill="#ffb4b4" opacity="0.55"/>
  <ellipse cx="78" cy="72" rx="8" ry="5" fill="#ffb4b4" opacity="0.55"/>
  <ellipse cx="48" cy="62" rx="7" ry="9" fill="#1a1a2e"/>
  <ellipse cx="72" cy="62" rx="7" ry="9" fill="#1a1a2e"/>
  <circle cx="50" cy="60" r="2.5" fill="#fff"/>
  <circle cx="74" cy="60" r="2.5" fill="#fff"/>
  <path d="M46 78 Q60 91 74 78" fill="none" stroke="#1a1a2e" stroke-width="2.5" stroke-linecap="round"/>
  <path d="M24 50 Q60 28 96 50 L94 58 Q60 38 26 58 Z" fill="url(#tenni-visor)"/>
  <ellipse cx="60" cy="44" rx="22" ry="6" fill="#c41e3a" opacity="0.9"/>
  <text x="60" y="47" text-anchor="middle" font-size="6" font-weight="800" fill="#fff" font-family="system-ui,sans-serif">MP</text>
  <g transform="translate(78,50) rotate(20)">
    <rect x="0" y="0" width="5" height="30" rx="2.5" fill="#78716c"/>
    <ellipse cx="2.5" cy="-10" rx="14" ry="18" fill="none" stroke="#a8a29e" stroke-width="2.5"/>
    <line x1="-8" y1="-10" x2="13" y2="-10" stroke="#d6d3d1" stroke-width="0.8"/>
    <line x1="-5" y1="-4" x2="10" y2="-4" stroke="#d6d3d1" stroke-width="0.8"/>
    <line x1="-6" y1="-16" x2="11" y2="-16" stroke="#d6d3d1" stroke-width="0.8"/>
  </g>
  <circle cx="24" cy="86" r="10" fill="#84cc16" stroke="#65a30d" stroke-width="1.5"/>
  <path d="M18 80 Q24 92 30 80" fill="none" stroke="#ecfccb" stroke-width="2"/>
  <path d="M18 92 Q24 80 30 92" fill="none" stroke="#ecfccb" stroke-width="2"/>
</svg>
