<svg xmlns="http://www.w3.org/2000/svg" viewBox="0 0 120 120" role="img" aria-label="Tenni, Tennis mascot">
  <defs>
    <linearGradient id="tenni-body" x1="0%" y1="0%" x2="0%" y2="100%">
      <stop offset="0%" stop-color="#fffdf8"/>
      <stop offset="100%" stop-color="#f0ebe3"/>
    </linearGradient>
    <linearGradient id="tenni-visor" x1="0%" y1="0%" x2="100%" y2="0%">
      <stop offset="0%" stop-color="#15803d"/>
      <stop offset="100%" stop-color="#22c55e"/>
    </linearGradient>
  </defs>
  <ellipse cx="60" cy="108" rx="34" ry="6" fill="#000" opacity="0.12"/>
  <circle cx="60" cy="68" r="38" fill="url(#tenni-body)" stroke="#22c55e" stroke-width="2.5"/>
  <ellipse cx="42" cy="72" rx="8" ry="5" fill="#ffb4b4" opacity="0.55"/>
  <ellipse cx="78" cy="72" rx="8" ry="5" fill="#ffb4b4" opacity="0.55"/>
  <ellipse cx="48" cy="62" rx="7" ry="9" fill="#1a1a2e"/>
  <ellipse cx="72" cy="62" rx="7" ry="9" fill="#1a1a2e"/>
  <circle cx="50" cy="60" r="2.5" fill="#fff"/>
  <circle cx="74" cy="60" r="2.5" fill="#fff"/>
  <path d="M46 78 Q60 91 74 78" fill="none" stroke="#1a1a2e" stroke-width="2.5" stroke-linecap="round"/>
  <path d="M24 50 Q60 28 96 50 L94 58 Q60 38 26 58 Z" fill="url(#tenni-visor)"/>
  <ellipse cx="60" cy="44" rx="22" ry="6" fill="#15803d" opacity="0.95"/>
  <text x="60" y="47" text-anchor="middle" font-size="6" font-weight="800" fill="#fff" font-family="system-ui,sans-serif">MP</text>
  <!-- Tennis ball: green theme with white seams -->
  <circle cx="20" cy="92" r="10" fill="#4ade80" stroke="#16a34a" stroke-width="1.5"/>
  <path d="M11 92 C14 80 26 80 29 92 C26 104 14 104 11 92 Z" fill="none" stroke="#fff" stroke-width="2" stroke-linecap="round"/>
  <path d="M11 92 C14 104 26 104 29 92" fill="none" stroke="#fff" stroke-width="2" stroke-linecap="round"/>
  <!-- Tennis racket -->
  <g transform="translate(76,86) rotate(38) scale(0.9)">
    <rect x="-2" y="-22" width="4.5" height="22" rx="2" fill="#78716c"/>
    <ellipse cx="0" cy="-32" rx="15" ry="19" fill="none" stroke="#a8a29e" stroke-width="2.5"/>
    <ellipse cx="0" cy="-32" rx="12" ry="16" fill="#fafaf9" opacity="0.35"/>
    <line x1="-10" y1="-32" x2="10" y2="-32" stroke="#d6d3d1" stroke-width="0.9"/>
    <line x1="-8" y1="-26" x2="8" y2="-26" stroke="#d6d3d1" stroke-width="0.9"/>
    <line x1="-9" y1="-38" x2="9" y2="-38" stroke="#d6d3d1" stroke-width="0.9"/>
    <line x1="-6" y1="-44" x2="6" y2="-44" stroke="#d6d3d1" stroke-width="0.9"/>
    <line x1="-12" y1="-32" x2="-12" y2="-22" stroke="#d6d3d1" stroke-width="0.7"/>
    <line x1="-4" y1="-32" x2="-4" y2="-22" stroke="#d6d3d1" stroke-width="0.7"/>
    <line x1="4" y1="-32" x2="4" y2="-22" stroke="#d6d3d1" stroke-width="0.7"/>
    <line x1="12" y1="-32" x2="12" y2="-22" stroke="#d6d3d1" stroke-width="0.7"/>
  </g>
</svg>
